<svg width="67" height="12" viewBox="0 0 67 12" fill="none" xmlns="http://www.w3.org/2000/svg">
<path d="M5.90991 1.34786L4.56729 3.93348L1.56337 4.34944C1.02468 4.42365 0.808795 5.05443 1.19945 5.41572L3.37272 7.42719L2.8587 10.2686C2.76617 10.7822 3.33571 11.167 3.81272 10.9268L6.5 9.58512L9.18729 10.9268C9.66429 11.165 10.2338 10.7822 10.1413 10.2686L9.62729 7.42719L11.8006 5.41572C12.1912 5.05443 11.9753 4.42365 11.4366 4.34944L8.43271 3.93348L7.09009 1.34786C6.84953 0.88698 6.15252 0.881122 5.90991 1.34786Z" fill="#FFC805"/>
<path d="M19.4636 1.34786L18.243 3.93348L15.5122 4.34944C15.0224 4.42365 14.8262 5.05443 15.1813 5.41572L17.157 7.42719L16.6897 10.2686C16.6056 10.7822 17.1234 11.167 17.557 10.9268L20 9.58512L22.443 10.9268C22.8766 11.165 23.3944 10.7822 23.3103 10.2686L22.843 7.42719L24.8187 5.41572C25.1738 5.05443 24.9776 4.42365 24.4878 4.34944L21.757 3.93348L20.5364 1.34786C20.3178 0.88698 19.6841 0.881122 19.4636 1.34786Z" fill="#FFC805"/>
<path d="M32.9099 1.34786L31.5673 3.93348L28.5634 4.34944C28.0247 4.42365 27.8088 5.05443 28.1994 5.41572L30.3727 7.42719L29.8587 10.2686C29.7662 10.7822 30.3357 11.167 30.8127 10.9268L33.5 9.58512L36.1873 10.9268C36.6643 11.165 37.2338 10.7822 37.1413 10.2686L36.6273 7.42719L38.8006 5.41572C39.1912 5.05443 38.9753 4.42365 38.4366 4.34944L35.4327 3.93348L34.0901 1.34786C33.8495 0.88698 33.1525 0.881122 32.9099 1.34786Z" fill="#FFC805"/>
<path d="M46.4636 1.34786L45.243 3.93348L42.5122 4.34944C42.0224 4.42365 41.8262 5.05443 42.1813 5.41572L44.157 7.42719L43.6897 10.2686C43.6056 10.7822 44.1234 11.167 44.557 10.9268L47 9.58512L49.443 10.9268C49.8766 11.165 50.3944 10.7822 50.3103 10.2686L49.843 7.42719L51.8187 5.41572C52.1738 5.05443 51.9776 4.42365 51.4878 4.34944L48.757 3.93348L47.5364 1.34786C47.3178 0.88698 46.6841 0.881122 46.4636 1.34786Z" fill="#FFC805"/>
<path d="M59.9099 1.34786L58.5673 3.93348L55.5634 4.34944C55.0247 4.42365 54.8088 5.05443 55.1994 5.41572L57.3727 7.42719L56.8587 10.2686C56.7662 10.7822 57.3357 11.167 57.8127 10.9268L60.5 9.58512L63.1873 10.9268C63.6643 11.165 64.2338 10.7822 64.1413 10.2686L63.6273 7.42719L65.8006 5.41572C66.1912 5.05443 65.9753 4.42365 65.4366 4.34944L62.4327 3.93348L61.0901 1.34786C60.8495 0.88698 60.1525 0.881122 59.9099 1.34786Z" fill="#FFC805"/>
</svg>
